<svg width="18" height="29" viewBox="0 0 18 29" fill="none" xmlns="http://www.w3.org/2000/svg">
<path d="M5.72503 14.5061L16.5739 3.65683C16.8726 3.35881 17.0369 2.96036 17.0369 2.5355C17.0369 2.1104 16.8726 1.71218 16.5739 1.41369L15.6232 0.463528C15.325 0.164569 14.9263 0 14.5014 0C14.0766 0 13.6783 0.164569 13.3799 0.463528L0.462592 13.3806C0.162925 13.68 -0.00117255 14.0801 6.31665e-06 14.5054C-0.00117255 14.9326 0.162689 15.3323 0.462592 15.6319L13.3678 28.5365C13.6663 28.8354 14.0645 29 14.4896 29C14.9145 29 15.3127 28.8354 15.6114 28.5365L16.5618 27.5863C17.1803 26.9679 17.1803 25.9611 16.5618 25.3429L5.72503 14.5061Z" fill="white"/>
</svg>
