<svg width="38" height="16" viewBox="0 0 38 16" fill="none" xmlns="http://www.w3.org/2000/svg">
<path fill-rule="evenodd" clip-rule="evenodd" d="M37.2815 8.69277H37.473C37.4733 8.69277 37.4734 8.69247 37.4732 8.6923C37.4732 8.69226 37.4732 8.69221 37.4731 8.69216C37.4481 8.58041 37.4251 8.47072 37.4025 8.36269C37.3549 8.1353 37.3088 7.91527 37.2481 7.69893C36.9603 6.67297 36.4236 5.77176 35.719 4.96106C34.6389 3.71876 33.2943 2.81059 31.7907 2.10966C30.3111 1.41997 28.7542 0.9616 27.1301 0.725456C26.4517 0.626393 25.7683 0.541253 25.0838 0.501628C23.8953 0.432552 22.7046 0.453971 21.5244 0.624251C20.8115 0.727062 20.0987 0.840583 19.3969 0.995335C18.4307 1.20899 17.4933 1.51903 16.5865 1.90992C15.4241 2.41113 14.3362 3.03014 13.3717 3.83602C11.982 4.99747 10.9547 6.3806 10.5735 8.1498C10.5482 8.26726 10.5294 8.3862 10.5099 8.50864C10.4953 8.60076 10.5664 8.68474 10.6597 8.68474H14.2024C14.225 8.68474 14.2448 8.66968 14.2506 8.64782C14.2561 8.62698 14.2616 8.60649 14.2679 8.58621C14.301 8.47983 14.3316 8.37248 14.3622 8.26515C14.4312 8.02296 14.5001 7.78086 14.5979 7.55007C14.9624 6.69171 15.5608 5.99291 16.2815 5.38836C17.2888 4.54339 18.4551 3.97096 19.7136 3.56936C20.8371 3.21113 21.9956 3.013 23.1774 2.94874C24.4515 2.87913 25.7127 2.97498 26.9579 3.2379C28.0997 3.47886 29.1932 3.85423 30.2116 4.41434C31.3123 5.02049 32.2636 5.78622 32.9476 6.83039C33.2887 7.35141 33.5354 7.91205 33.6465 8.51928C33.6749 8.67457 33.7304 8.69599 33.871 8.69545C34.7403 8.69176 35.6096 8.69215 36.4789 8.69254C36.7464 8.69266 37.0139 8.69277 37.2815 8.69277ZM0.0587516 7.17501C0.0529415 7.17532 0.0470278 7.17564 0.0409905 7.17596C0.0193149 7.1771 0.00200998 7.19494 0.00100493 7.21662C-0.000159175 7.24173 -0.00119942 7.26418 0.00328168 7.28541C0.0232593 7.37961 0.0416669 7.47427 0.0600791 7.56897C0.10363 7.79294 0.147206 8.01705 0.211642 8.23534C0.551687 9.38607 1.1901 10.3746 2.02633 11.2501C2.79809 12.0581 3.69377 12.7151 4.67445 13.2693C5.91128 13.9681 7.23257 14.4736 8.61775 14.8147C9.31062 14.985 10.0185 15.1092 10.7264 15.2126C11.3431 15.3031 11.9682 15.3598 12.5916 15.3871C13.6829 15.4353 14.773 15.4016 15.8604 15.2688C16.7049 15.1654 17.54 15.0182 18.3629 14.8115C19.1675 14.6091 19.9531 14.351 20.716 14.0302C22.1323 13.4348 23.4341 12.6696 24.5465 11.6249C25.7294 10.5149 26.574 9.22008 26.8929 7.63882C26.9133 7.53789 26.9272 7.43572 26.9419 7.32832C26.9422 7.32606 26.9425 7.32381 26.9428 7.32155C26.9536 7.24241 26.8922 7.17135 26.8124 7.17135H26.0662C25.8407 7.17135 25.6153 7.17155 25.3899 7.17175C24.7137 7.17236 24.0377 7.17296 23.3614 7.16814C23.2308 7.1676 23.1858 7.20669 23.1647 7.32503C23.1324 7.50495 23.0891 7.68434 23.033 7.8589C22.7446 8.75475 22.2195 9.51245 21.53 10.1641C20.1398 11.4771 18.4279 12.1995 16.5638 12.6241C15.8354 12.7901 15.0919 12.8816 14.3424 12.9229C13.2745 12.9818 12.2132 12.9352 11.1586 12.7671C10.4069 12.6471 9.67066 12.4677 8.95335 12.2187C7.71207 11.7877 6.56915 11.1938 5.59902 10.3199C4.67667 9.48942 4.01325 8.51164 3.78656 7.29505C3.76711 7.18902 3.72099 7.16975 3.62098 7.16975C2.6933 7.17232 1.76597 7.17215 0.838716 7.17197C0.606908 7.17193 0.375104 7.17189 0.1433 7.17189C0.116039 7.17189 0.0887782 7.17337 0.0587516 7.17501Z" fill="white" fill-opacity="0.1"/>
</svg>
